<svg width="53" height="53" viewBox="0 0 53 53" fill="none" xmlns="http://www.w3.org/2000/svg">
<rect width="53" height="53" rx="5" fill="#313131"/>
<g clip-path="url(#clip0_2560_23)">
<path d="M27 12C35.2833 12 42 18.7167 42 27C42 35.2833 35.2833 42 27 42C18.7167 42 12 35.2875 12 27C12 18.7125 18.7167 12 27 12Z" fill="#F1F1F1"/>
<path d="M29.1124 25.3277V23.0943H34.2165V19.6943H20.3207V23.0943H25.4249V25.3277C21.279 25.5193 18.1582 26.3402 18.1582 27.3235C18.1582 28.3068 21.279 29.1277 25.4249 29.3193V36.4652H29.1165V29.3193C33.2582 29.1277 36.3707 28.3068 36.3707 27.3235C36.3665 26.3402 33.254 25.5193 29.1124 25.3277ZM29.1165 28.7152C29.0124 28.7193 28.479 28.7527 27.2874 28.7527C26.3332 28.7527 25.6665 28.7277 25.429 28.7152V28.7193C21.7665 28.5568 19.029 27.9193 19.029 27.1568C19.029 26.3943 21.7624 25.7568 25.429 25.5943V28.0777C25.6707 28.0943 26.354 28.136 27.304 28.136C28.4415 28.136 29.0124 28.0902 29.1207 28.0777V25.586C32.779 25.7485 35.5082 26.386 35.5082 27.1485C35.4999 27.911 32.7707 28.5485 29.1165 28.7152Z" fill="#313131"/>
</g>
<defs>
<clipPath id="clip0_2560_23">
<rect width="30" height="30" fill="white" transform="translate(12 12)"/>
</clipPath>
</defs>
</svg>
