<svg width="53" height="53" viewBox="0 0 53 53" fill="none" xmlns="http://www.w3.org/2000/svg">
<rect width="53" height="53" rx="5" fill="#313131"/>
<g clip-path="url(#clip0_2560_28)">
<path d="M27.2069 12L27.0059 12.6835V32.5157L27.2069 32.7164L36.4128 27.2748L27.2069 12Z" fill="#F1F1F1"/>
<path d="M27.2069 12L18.001 27.2748L27.2069 32.7165V23.0905V12Z" fill="#F1F1F1"/>
<path d="M27.2073 34.4596L27.094 34.5977V41.6624L27.2073 41.9933L36.4187 29.0208L27.2073 34.4596Z" fill="#F1F1F1"/>
<path d="M27.2069 41.9932V34.4594L18.001 29.0205L27.2069 41.9932Z" fill="#F1F1F1"/>
<path d="M27.207 32.7166L36.4128 27.2751L27.207 23.0908V32.7166Z" fill="#D9D9D9"/>
<path d="M18.001 27.2751L27.2067 32.7167V23.0908L18.001 27.2751Z" fill="#C1C1C1"/>
</g>
<defs>
<clipPath id="clip0_2560_28">
<rect width="18.42" height="30" fill="white" transform="translate(18 12)"/>
</clipPath>
</defs>
</svg>
