<svg width="53" height="53" viewBox="0 0 53 53" fill="none" xmlns="http://www.w3.org/2000/svg">
<rect width="53" height="53" rx="5" fill="#313131"/>
<g clip-path="url(#clip0_2560_18)">
<path d="M27 42C35.3125 42 42 35.3125 42 27C42 18.6874 35.3125 12 27 12C18.6874 12 12 18.6874 12 27C12 35.3125 18.6874 42 27 42Z" fill="#F1F1F1"/>
<path d="M31.1249 29.375C31.1249 27.1875 29.8124 26.4375 27.1874 26.1251C25.3124 25.875 24.9375 25.3751 24.9375 24.5C24.9375 23.6249 25.5625 23.0626 26.8124 23.0626C27.9374 23.0626 28.5625 23.4376 28.8749 24.3751C28.9375 24.5626 29.125 24.6875 29.3125 24.6875H30.3124C30.5624 24.6875 30.7499 24.5 30.7499 24.2501V24.1876C30.4999 22.8125 29.3749 21.75 27.9374 21.6251V20.1251C27.9374 19.875 27.75 19.6876 27.4375 19.625H26.5C26.2499 19.625 26.0625 19.8125 25.9999 20.1251V21.5626C24.1249 21.8126 22.9375 23.0625 22.9375 24.6251C22.9375 26.6876 24.1875 27.5 26.8124 27.8126C28.5625 28.1251 29.125 28.5001 29.125 29.5001C29.125 30.5002 28.2499 31.1876 27.0625 31.1876C25.4374 31.1876 24.8749 30.5 24.6874 29.5625C24.625 29.3126 24.4375 29.1875 24.25 29.1875H23.1874C22.9375 29.1875 22.75 29.375 22.75 29.6251V29.6876C22.9999 31.25 24 32.375 26.0624 32.6876V34.1876C26.0624 34.4375 26.25 34.625 26.5624 34.6876H27.4999C27.7499 34.6876 27.9375 34.5001 28 34.1876V32.6876C29.875 32.375 31.1249 31.0625 31.1249 29.375Z" fill="#313131"/>
<path d="M23.8125 35.9374C18.9375 34.1875 16.4374 28.75 18.25 23.9374C19.1875 21.3124 21.25 19.3124 23.8125 18.3749C24.0625 18.25 24.1875 18.0625 24.1875 17.7499V16.8749C24.1875 16.6249 24.0625 16.4374 23.8125 16.375C23.7499 16.375 23.625 16.375 23.5624 16.4374C17.625 18.3124 14.3749 24.625 16.2499 30.5624C17.3749 34.0624 20.0625 36.7499 23.5624 37.8749C23.8125 37.9999 24.0625 37.8749 24.1249 37.6249C24.1875 37.5625 24.1875 37.4999 24.1875 37.375V36.4999C24.1875 36.3124 24 36.0625 23.8125 35.9374ZM30.4375 16.4374C30.1875 16.3124 29.9374 16.4374 29.875 16.6874C29.8125 16.75 29.8125 16.8124 29.8125 16.9375V17.8124C29.8125 18.0625 30 18.3124 30.1875 18.4375C35.0625 20.1874 37.5625 25.6249 35.7499 30.4375C34.8124 33.0625 32.7499 35.0624 30.1875 35.9999C29.9374 36.1249 29.8125 36.3124 29.8125 36.625V37.4999C29.8125 37.75 29.9374 37.9375 30.1875 37.9999C30.25 37.9999 30.375 37.9999 30.4375 37.9375C36.375 36.0625 39.625 29.7499 37.75 23.8124C36.625 20.2499 33.8749 17.5624 30.4375 16.4374Z" fill="#313131"/>
</g>
<defs>
<clipPath id="clip0_2560_18">
<rect width="30" height="30" fill="white" transform="translate(12 12)"/>
</clipPath>
</defs>
</svg>
