<svg width="53" height="53" viewBox="0 0 53 53" fill="none" xmlns="http://www.w3.org/2000/svg">
<rect width="53" height="53" rx="5" fill="#313131"/>
<g clip-path="url(#clip0_2560_36)">
<path d="M21.1771 24.6056L27.0037 18.7815L32.8326 24.6104L36.2209 21.2197L27.0037 12L17.7864 21.2173L21.1771 24.6056Z" fill="#F1F1F1"/>
<path d="M12 27.0011L15.3884 23.6104L18.7791 27.0011L15.3884 30.3894L12 27.0011Z" fill="#F1F1F1"/>
<path d="M21.1769 29.394L27.0034 35.2205L32.8323 29.3916L36.2231 32.7776L27.0058 41.9972L17.7861 32.7847L21.1769 29.394Z" fill="#F1F1F1"/>
<path d="M35.2209 27.0011L38.6093 23.6104L42 26.9987L38.6093 30.3918L35.2209 27.0011Z" fill="#F1F1F1"/>
<path d="M30.4417 26.9991L27.0035 23.5586L24.4611 26.101L24.1673 26.3925L23.5654 26.9943L27.0035 30.4301L30.4417 27.0015V26.9991Z" fill="#F1F1F1"/>
</g>
<defs>
<clipPath id="clip0_2560_36">
<rect width="30" height="30" fill="white" transform="translate(12 12)"/>
</clipPath>
</defs>
</svg>
