<svg width="25" height="21" viewBox="0 0 25 21" fill="none" xmlns="http://www.w3.org/2000/svg">
<path d="M23.7243 0.383559C23.335 0.0268725 22.7817 -0.0919916 22.2802 0.0732836L1.00343 7.08701C0.423573 7.27814 0.030353 7.79575 0.00166492 8.40557C-0.0269759 9.01544 0.31591 9.5677 0.875209 9.81247L6.13712 12.1147C6.16279 12.2338 7.67333 19.2397 7.7247 19.4779C7.79063 19.7838 7.94589 20.0562 8.27479 20.14C8.60746 20.2248 8.8425 20.0429 9.09072 19.8571C9.22886 19.7537 12.9955 16.9332 12.9955 16.9332L17.5605 20.6688C17.8264 20.8865 18.1514 21 18.4827 21C18.6405 21 18.7997 20.9742 18.9547 20.9217C19.4351 20.7588 19.7913 20.3666 19.9074 19.8728L24.1594 1.79499C24.2803 1.28102 24.1136 0.740245 23.7243 0.383559ZM9.43086 13.4339C9.42826 13.4401 9.42571 13.447 9.4233 13.4553L8.54309 16.5306L7.5608 11.9748L14.3153 8.22191L9.59288 13.1598C9.51849 13.2375 9.46376 13.3316 9.43086 13.4339ZM9.71023 17.6178L10.11 16.221L10.4924 14.8849L11.8626 16.0062L9.71023 17.6178ZM22.7759 1.46955L18.524 19.5474C18.5219 19.5563 18.5191 19.5687 18.4983 19.5758C18.4777 19.5828 18.4676 19.5748 18.4606 19.5689L13.4654 15.4813C13.4652 15.4812 13.4651 15.4811 13.465 15.481L11.1506 13.5871L18.586 5.81259C18.8289 5.55865 18.8497 5.16539 18.6349 4.88725C18.4201 4.60907 18.0344 4.52962 17.7273 4.70033L6.7176 10.8174L1.4449 8.5104C1.42884 8.50341 1.42 8.49948 1.42127 8.47231C1.42255 8.44523 1.43172 8.44215 1.44836 8.43667L22.7251 1.42299C22.7354 1.41964 22.7471 1.41576 22.7642 1.43136C22.7813 1.44705 22.7785 1.45896 22.7759 1.46955Z" fill="#F1F1F1"/>
</svg>
